<svg xmlns="http://www.w3.org/2000/svg" viewBox="0 0 180 180"><defs><linearGradient id="g" gradientUnits="userSpaceOnUse" x1="0" y1="72" x2="0" y2="165"><stop offset="0" stop-color="#AA7950"/><stop offset=".38" stop-color="#C59C58"/><stop offset=".73" stop-color="#DFC585"/><stop offset="1" stop-color="#7A8153"/></linearGradient><clipPath id="c"><path d="M8 148Q29 124 51 103L69 83 83 87 94 96 108 84 124 85Q143 111 173 148V180H8Z"/></clipPath><filter id="f" x="-3%" y="-3%" width="106%" height="106%" color-interpolation-filters="sRGB"><feTurbulence type="fractalNoise" baseFrequency=".48" numOctaves="1" seed="13" result="grain"/><feDisplacementMap in="SourceGraphic" in2="grain" scale="1" xChannelSelector="R" yChannelSelector="G" result="edge"/><feComposite in="grain" in2="edge" operator="arithmetic" k1=".2" k2="0" k3=".8" k4="0"/></filter></defs><g><g filter="url(#f)"><g class="ridge-back" opacity="1"><path fill="#B7A980" d="M8 144Q28 123 46 109Q61 109 84 120Q141 113 173 144V180H8Z"/></g><g class="ridge"><path fill="url(#g)" d="M8 148Q29 124 51 103L69 83 83 87 94 96 108 84 124 85Q143 111 173 148V180H8Z"/></g><g class="motif" transform="translate(55 111) scale(0.93)" style="--ridge:#AA8354;--paper:#E7D9B5;--ink:#714E39;--accent:#D5AA69"><use href="../../motifs/meadow.svg#motif-meadow-season" width="80" height="40"/></g><g class="lg-only collected-only"><path fill="#E7D9B5" opacity=".65" d="M40 131Q57 113 66 96L71 103Q62 127 50 136Z"/></g><g class="lg-only collected-only" clip-path="url(#c)"><path fill="#EBDEBD" opacity=".72" d="M19 142Q45 135 68 116Q87 104 105 104L111 110Q87 112 72 127Q48 146 29 150Z"/></g></g></g></svg>