<svg xmlns="http://www.w3.org/2000/svg" viewBox="0 0 180 180"><defs><linearGradient id="g" gradientUnits="userSpaceOnUse" x1="0" y1="72" x2="0" y2="165"><stop offset="0" stop-color="#973F42"/><stop offset=".38" stop-color="#CE6341"/><stop offset=".73" stop-color="#D9A354"/><stop offset="1" stop-color="#65764D"/></linearGradient><clipPath id="c"><path d="M8 149 35 128 56 109 68 79 81 68 96 79 107 105 125 111 143 126 173 149V180H8Z"/></clipPath><filter id="f" x="-3%" y="-3%" width="106%" height="106%" color-interpolation-filters="sRGB"><feTurbulence type="fractalNoise" baseFrequency=".48" numOctaves="1" seed="13" result="grain"/><feDisplacementMap in="SourceGraphic" in2="grain" scale="1" xChannelSelector="R" yChannelSelector="G" result="edge"/><feComposite in="grain" in2="edge" operator="arithmetic" k1=".2" k2="0" k3=".8" k4="0"/></filter></defs><g><g filter="url(#f)"><g class="ridge-back" opacity="1"><path fill="#D59A67" d="M8 144Q28 123 46 109Q73 94 96 105Q141 113 173 144V180H8Z"/></g><g class="ridge"><path fill="url(#g)" d="M8 149 35 128 56 109 68 79 81 68 96 79 107 105 125 111 143 126 173 149V180H8Z"/></g><g class="motif" transform="translate(67 69) scale(0.48)" style="--ridge:#A55440;--paper:#E1BA89;--ink:#714E39;--accent:#D5AA69"><use href="../../motifs/rock-dome.svg#motif-rock-dome" width="48" height="64"/></g><g class="lg-only collected-only"><path fill="#E1BA89" opacity=".65" d="M52 116Q69 98 78 81L83 88Q74 112 62 121Z"/></g><g class="lg-only collected-only" clip-path="url(#c)"></g></g></g></svg>