<svg xmlns="http://www.w3.org/2000/svg" viewBox="0 0 180 180"><defs><linearGradient id="terrain-0000000075-autumn" gradientUnits="userSpaceOnUse" x1="0" y1="72" x2="0" y2="165"><stop offset="0" stop-color="#973F42"/><stop offset=".38" stop-color="#CE6341"/><stop offset=".73" stop-color="#D9A354"/><stop offset="1" stop-color="#65764D"/></linearGradient><clipPath id="land-0000000075-autumn"><path d="M8 148 29 130 31 87 39 80 48 80 54 71 67 67 76 74 80 91 81 126 94 138 101 131 103 97 112 85 124 83 132 89 140 85 148 101 153 146 173 152V180H8Z"/></clipPath><filter id="ink-0000000075" x="-3%" y="-3%" width="106%" height="106%" color-interpolation-filters="sRGB"><feTurbulence type="fractalNoise" baseFrequency=".48" numOctaves="1" seed="13" result="grain"/><feDisplacementMap in="SourceGraphic" in2="grain" scale="1" xChannelSelector="R" yChannelSelector="G" result="edge"/><feComposite in="grain" in2="edge" operator="arithmetic" k1=".2" k2="0" k3=".8" k4="0"/></filter></defs><g class="stamp-art" data-status="landmark-concept-dem-pending"><g class="textured" filter="url(#ink-0000000075)"><g class="ridge-back" opacity="1"><path fill="#D59A67" d="M8 135Q32 119 49 130Q72 120 96 128Q133 111 173 137V180H8Z"/></g><g class="ridge"><path fill="url(#terrain-0000000075-autumn)" d="M8 148 29 130 31 87 39 80 48 80 54 71 67 67 76 74 80 91 81 126 94 138 101 131 103 97 112 85 124 83 132 89 140 85 148 101 153 146 173 152V180H8Z"/></g><g class="motif" transform="translate(29 67) scale(1.06)" style="--ridge:#A55440;--paper:#E1BA89;--ink:#714E39;--accent:#D5AA69"><use href="../../motifs/cliff.svg#motif-cliff" width="116" height="80"/></g><g class="lg-only collected-only"><path fill="#E1BA89" opacity=".65" d="M85 150Q99 141 96 132L102 126Q108 143 96 158Z"/></g><g class="season-signature lg-only collected-only" clip-path="url(#land-0000000075-autumn)"></g></g></g></svg>