<svg xmlns="http://www.w3.org/2000/svg" viewBox="0 0 180 180"><defs><filter id="f" x="-3%" y="-3%" width="106%" height="106%" color-interpolation-filters="sRGB"><feTurbulence type="fractalNoise" baseFrequency=".48" numOctaves="1" seed="13" result="grain"/><feDisplacementMap in="SourceGraphic" in2="grain" scale="1" xChannelSelector="R" yChannelSelector="G" result="edge"/><feComposite in="grain" in2="edge" operator="arithmetic" k1=".2" k2="0" k3=".8" k4="0"/></filter></defs><g><g filter="url(#f)"><g class="ridge-back" opacity=".6"><path fill="var(--ridge-back)" d="M8 144Q28 123 46 109Q97 91 120 102Q141 113 173 144V180H8Z"/></g><g class="ridge"><path fill="var(--ridge)" d="M8 149 26 120 35 95 46 118 58 84 69 106 82 75 93 95 105 65 116 92 128 79 139 108 151 93 173 149V180H8Z"/></g><g class="lg-only collected-only"><path fill="var(--paper)" opacity=".65" d="M76 113Q93 95 102 78L107 85Q98 109 86 118Z"/></g></g></g></svg>