<svg xmlns="http://www.w3.org/2000/svg" viewBox="0 0 180 180"><defs><filter id="f" x="-3%" y="-3%" width="106%" height="106%" color-interpolation-filters="sRGB"><feTurbulence type="fractalNoise" baseFrequency=".48" numOctaves="1" seed="13" result="grain"/><feDisplacementMap in="SourceGraphic" in2="grain" scale="1" xChannelSelector="R" yChannelSelector="G" result="edge"/><feComposite in="grain" in2="edge" operator="arithmetic" k1=".2" k2="0" k3=".8" k4="0"/></filter></defs><g><g filter="url(#f)"><g class="ridge-back" opacity=".6"><path fill="var(--ridge-back)" d="M8 144Q28 123 46 109Q93 97 116 108Q141 113 173 144V180H8Z"/></g><g class="ridge"><path fill="var(--ridge)" d="M8 149Q30 126 52 113L74 89Q88 72 101 71Q123 83 141 115L173 149V180H8Z"/></g><g class="snow collected-only"><path fill="var(--paper)" d="M88 88L101 71 114 89 106 83 101 88 96 83Z"/></g><g class="lg-only collected-only"><path fill="var(--paper)" opacity=".65" d="M72 119Q89 101 98 84L103 91Q94 115 82 124Z"/></g></g></g></svg>