<svg xmlns="http://www.w3.org/2000/svg" viewBox="0 0 180 180"><defs><linearGradient id="g" gradientUnits="userSpaceOnUse" x1="0" y1="72" x2="0" y2="165"><stop offset="0" stop-color="#123F38"/><stop offset=".45" stop-color="#174E3E"/><stop offset="1" stop-color="#276247"/></linearGradient><clipPath id="c"><path d="M8 149Q30 129 49 113L66 91Q80 75 92 74Q106 78 119 99L140 120 173 149V180H8Z"/></clipPath><filter id="f" x="-3%" y="-3%" width="106%" height="106%" color-interpolation-filters="sRGB"><feTurbulence type="fractalNoise" baseFrequency=".48" numOctaves="1" seed="13" result="grain"/><feDisplacementMap in="SourceGraphic" in2="grain" scale="1" xChannelSelector="R" yChannelSelector="G" result="edge"/><feComposite in="grain" in2="edge" operator="arithmetic" k1=".2" k2="0" k3=".8" k4="0"/></filter></defs><g><g filter="url(#f)"><g class="ridge-back" opacity="1"><path fill="#71998A" d="M8 144Q28 123 46 109Q84 100 107 111Q141 113 173 144V180H8Z"/></g><g class="ridge"><path fill="url(#g)" d="M8 149Q30 129 49 113L66 91Q80 75 92 74Q106 78 119 99L140 120 173 149V180H8Z"/></g><g class="lg-only collected-only"><path fill="#A8BBA1" opacity=".65" d="M63 122Q80 104 89 87L94 94Q85 118 73 127Z"/></g><g class="lg-only collected-only" clip-path="url(#c)"><path fill="#A9E1D8" d="M90 110Q109 126 95 133Q79 146 102 149L134 165H70Q65 149 80 135Q102 121 90 110Z" opacity=".94"/></g></g></g></svg>