<svg xmlns="http://www.w3.org/2000/svg" viewBox="0 0 180 180"><defs><linearGradient id="g" gradientUnits="userSpaceOnUse" x1="0" y1="72" x2="0" y2="165"><stop offset="0" stop-color="#123F38"/><stop offset=".45" stop-color="#174E3E"/><stop offset="1" stop-color="#276247"/></linearGradient><clipPath id="c"><path d="M8 149 32 128 48 100 57 77 67 102 79 89 95 55 108 63 119 98 138 124 173 149V180H8Z"/></clipPath><filter id="f" x="-3%" y="-3%" width="106%" height="106%" color-interpolation-filters="sRGB"><feTurbulence type="fractalNoise" baseFrequency=".48" numOctaves="1" seed="13" result="grain"/><feDisplacementMap in="SourceGraphic" in2="grain" scale="1" xChannelSelector="R" yChannelSelector="G" result="edge"/><feComposite in="grain" in2="edge" operator="arithmetic" k1=".2" k2="0" k3=".8" k4="0"/></filter></defs><g><g filter="url(#f)"><g class="ridge-back" opacity="1"><path fill="#71998A" d="M8 144Q28 123 46 109Q87 81 110 92Q141 113 173 144V180H8Z"/></g><g class="ridge"><path fill="url(#g)" d="M8 149 32 128 48 100 57 77 67 102 79 89 95 55 108 63 119 98 138 124 173 149V180H8Z"/></g><g class="motif" transform="translate(44 77) scale(0.4)" style="--ridge:#255244;--paper:#A8BBA1;--ink:#123E36;--accent:#A9E1D8"><use href="../../motifs/rock-spire.svg#motif-rock-spire" width="76" height="82"/></g><g class="lg-only collected-only"><path fill="#A8BBA1" opacity=".65" d="M66 103Q83 85 92 68L97 75Q88 99 76 108Z"/></g><g class="lg-only collected-only" clip-path="url(#c)"><path fill="#A9E1D8" d="M93 91Q112 107 95 133Q79 146 102 149L134 165H70Q65 149 80 135Q105 102 93 91Z" opacity=".94"/></g></g></g></svg>