<svg xmlns="http://www.w3.org/2000/svg" viewBox="0 0 180 180"><defs><linearGradient id="terrain-0000000055-summer" gradientUnits="userSpaceOnUse" x1="0" y1="72" x2="0" y2="165"><stop offset="0" stop-color="#123F38"/><stop offset=".45" stop-color="#174E3E"/><stop offset="1" stop-color="#276247"/></linearGradient><clipPath id="land-0000000055-summer"><path d="M8 146 29 130 39 108 50 114 62 86 73 93 85 66 96 67 102 95 118 117 128 95 139 99 151 127 173 143V180H8Z"/></clipPath><filter id="ink-0000000055" x="-3%" y="-3%" width="106%" height="106%" color-interpolation-filters="sRGB"><feTurbulence type="fractalNoise" baseFrequency=".48" numOctaves="1" seed="13" result="grain"/><feDisplacementMap in="SourceGraphic" in2="grain" scale="1" xChannelSelector="R" yChannelSelector="G" result="edge"/><feComposite in="grain" in2="edge" operator="arithmetic" k1=".2" k2="0" k3=".8" k4="0"/></filter></defs><g class="stamp-art" data-status="landmark-concept-dem-pending"><g class="textured" filter="url(#ink-0000000055)"><g class="ridge-back" opacity="1"><path fill="#71998A" d="M8 144Q28 123 46 109Q77 92 100 103Q141 113 173 144V180H8Z"/></g><g class="ridge"><path fill="url(#terrain-0000000055-summer)" d="M8 146 29 130 39 108 50 114 62 86 73 93 85 66 96 67 102 95 118 117 128 95 139 99 151 127 173 143V180H8Z"/></g><g class="motif" transform="translate(72 67) scale(0.43)" style="--ridge:#255244;--paper:#A8BBA1;--ink:#123E36;--accent:#A9E1D8"><use href="../../motifs/rock-spire.svg#motif-rock-spire" width="76" height="82"/></g><g class="lg-only collected-only"><path fill="#A8BBA1" opacity=".65" d="M56 114Q73 96 82 79L87 86Q78 110 66 119Z"/></g><g class="season-signature lg-only collected-only" clip-path="url(#land-0000000055-summer)"><path fill="#A9E1D8" d="M83 102Q102 118 95 133Q79 146 102 149L134 165H70Q65 149 80 135Q95 113 83 102Z" opacity=".94"/></g></g></g></svg>