<svg xmlns="http://www.w3.org/2000/svg" viewBox="0 0 180 180"><defs><linearGradient id="terrain-osm-5404330941-summer" gradientUnits="userSpaceOnUse" x1="0" y1="72" x2="0" y2="165"><stop offset="0" stop-color="#123F38"/><stop offset=".45" stop-color="#174E3E"/><stop offset="1" stop-color="#276247"/></linearGradient><clipPath id="land-osm-5404330941-summer"><path d="M8 148Q30 136 47 118Q64 96 80 87L97 84Q117 88 130 104Q152 130 173 147V180H8Z"/></clipPath><filter id="ink-osm-5404330941" x="-3%" y="-3%" width="106%" height="106%" color-interpolation-filters="sRGB"><feTurbulence type="fractalNoise" baseFrequency=".48" numOctaves="1" seed="13" result="grain"/><feDisplacementMap in="SourceGraphic" in2="grain" scale="1" xChannelSelector="R" yChannelSelector="G" result="edge"/><feComposite in="grain" in2="edge" operator="arithmetic" k1=".2" k2="0" k3=".8" k4="0"/></filter></defs><g class="stamp-art" data-status="landmark-concept-dem-pending"><g class="textured" filter="url(#ink-osm-5404330941)"><g class="ridge-back" opacity="1"><path fill="#71998A" d="M8 144Q28 123 46 119Q89 110 112 121Q141 113 173 144V180H8Z"/></g><g class="ridge"><path fill="url(#terrain-osm-5404330941-summer)" d="M8 148Q30 136 47 118Q64 96 80 87L97 84Q117 88 130 104Q152 130 173 147V180H8Z"/></g><g class="motif" transform="translate(54 93) scale(0.85)" style="--ridge:#255244;--paper:#A8BBA1;--ink:#123E36;--accent:#A9E1D8"><use href="../../motifs/fortress.svg#motif-fortress" width="90" height="30"/></g><g class="lg-only collected-only"><path fill="#A8BBA1" opacity=".65" d="M68 132Q85 114 94 97L99 104Q90 128 78 137Z"/></g><g class="season-signature lg-only collected-only" clip-path="url(#land-osm-5404330941-summer)"><path fill="#A9E1D8" d="M95 120Q114 136 95 133Q79 146 102 149L134 165H70Q65 149 80 135Q107 131 95 120Z" opacity=".94"/></g></g></g></svg>