<svg xmlns="http://www.w3.org/2000/svg" width="375" height="2020" viewBox="0 0 375 2020"><title>오늘 정상 collection · 375px 디자인 프레임</title><rect width="375" height="2020" fill="#FCFBF7"/><rect x="0" y="0" width="375" height="196" rx="0" fill="#F3F1E8" stroke="none"/><text x="24" y="64" font-family="Arial, Apple SD Gothic Neo, sans-serif" font-size="32" fill="#20372D" font-weight="700" text-anchor="start">내 스탬프</text><text x="24" y="98" font-family="Arial, Apple SD Gothic Neo, sans-serif" font-size="15" fill="#657168" font-weight="400" text-anchor="start">96곳 중 7곳을 모았어요</text><rect x="24" y="126" width="327" height="6" rx="3" fill="#DFE3D7" stroke="none"/><rect x="24" y="126" width="24" height="6" rx="3" fill="#1F6B4A" stroke="none"/><text x="24" y="228" font-family="Arial, Apple SD Gothic Neo, sans-serif" font-size="20" fill="#20372D" font-weight="600" text-anchor="start">수도권</text><text x="351" y="228" font-family="Arial, Apple SD Gothic Neo, sans-serif" font-size="15" fill="#657168" font-weight="400" text-anchor="end">3 / 14</text><g transform="translate(37.5 252)"><svg class="stamp collected" xmlns="http://www.w3.org/2000/svg" width="76" height="76" viewBox="0 0 180 180" role="img" aria-label="산 스탬프 모음"><defs><clipPath id="stamp-2"><circle cx="90" cy="90" r="73"/></clipPath></defs><circle cx="90" cy="90" r="85" fill="#FCFBF7" stroke="#E8622C" stroke-width="4"/><circle cx="90" cy="90" r="77" fill="none" stroke="#E8622C" stroke-width="1.5"/><g clip-path="url(#stamp-2)"><circle cx="90" cy="90" r="73" fill="#F2D4B5"/><circle cx="116" cy="57" r="20" fill="#E8622C"/><path d="M20 117 L47 89 L61 84 L82 55 L93 65 L117 82 L129 81 L143 112 L162 122 L170 180 H10Z" fill="#377650"/><path d="M10 148Q57 100 103 143T178 137V180H0Z" fill="#377650" opacity=".6"/><circle cx="125" cy="90" r="1.1" fill="#FCFBF7" opacity=".3"/><circle cx="51.661578485873555" cy="125.13069079601433" r="0.65" fill="#FCFBF7" opacity=".3"/><circle cx="96.0137462495884" cy="21.262565831669562" r="0.65" fill="#FCFBF7" opacity=".3"/><circle cx="116.17674144737497" cy="124.11419363252313" r="1.1" fill="#FCFBF7" opacity=".3"/><circle cx="30.911534819267516" cy="79.58110933998421" r="0.65" fill="#FCFBF7" opacity=".3"/><circle cx="154.9411413275921" cy="48.62793015729441" r="0.65" fill="#FCFBF7" opacity=".3"/><circle cx="76.8002286997714" cy="139.26221714074248" r="1.1" fill="#FCFBF7" opacity=".3"/><circle cx="58.601094300017735" cy="29.683263343880903" r="0.65" fill="#FCFBF7" opacity=".3"/><circle cx="129.46709007300817" cy="104.36484601967804" r="0.65" fill="#FCFBF7" opacity=".3"/><circle cx="35.49110758183407" cy="112.57832250954027" r="1.1" fill="#FCFBF7" opacity=".3"/><circle cx="122.11898789229281" cy="21.12060818521445" r="0.65" fill="#FCFBF7" opacity=".3"/><circle cx="105.03528997521364" cy="137.68584753741135" r="0.65" fill="#FCFBF7" opacity=".3"/><circle cx="31.97629794644267" cy="56.49999999999989" r="1.1" fill="#FCFBF7" opacity=".3"/><circle cx="130.02813629191726" cy="81.12597582853778" r="0.65" fill="#FCFBF7" opacity=".3"/><circle cx="56.73256669163925" cy="137.51081856876147" r="0.65" fill="#FCFBF7" opacity=".3"/><circle cx="80.2105355834961" cy="15.641635396964219" r="1.1" fill="#FCFBF7" opacity=".3"/><circle cx="127.53617771283" cy="121.49659287464034" r="0.65" fill="#FCFBF7" opacity=".3"/><circle cx="24.062817375597405" cy="92.87887956611246" r="0.65" fill="#FCFBF7" opacity=".3"/><circle cx="118.28427124746193" cy="61.715728752538126" r="1.1" fill="#FCFBF7" opacity=".3"/><circle cx="87.51369492017591" cy="146.9457486301659" r="0.65" fill="#FCFBF7" opacity=".3"/><circle cx="42.43371688319553" cy="33.312711209196095" r="0.65" fill="#FCFBF7" opacity=".3"/><circle cx="137.58935334594292" cy="96.26525722656226" r="1.1" fill="#FCFBF7" opacity=".3"/><circle cx="36.75511712121552" cy="127.28246836281798" r="0.65" fill="#FCFBF7" opacity=".3"/><circle cx="98.44114494358595" cy="51.924455722322584" r="0.65" fill="#FCFBF7" opacity=".3"/></g><path d="M79 156h22" stroke="#FCFBF7" stroke-width="2" opacity=".7"/></svg></g><text x="75.5" y="353" font-family="Arial, Apple SD Gothic Neo, sans-serif" font-size="15" fill="#20372D" font-weight="600" text-anchor="middle">북한산</text><text x="75.5" y="375" font-family="Arial, Apple SD Gothic Neo, sans-serif" font-size="13" fill="#657168" font-weight="400" text-anchor="middle">2026.09.05</text><g transform="translate(148.5 252)"><svg class="stamp collected" xmlns="http://www.w3.org/2000/svg" width="76" height="76" viewBox="0 0 180 180" role="img" aria-label="산 스탬프 모음"><defs><clipPath id="stamp-3"><circle cx="90" cy="90" r="73"/></clipPath></defs><circle cx="90" cy="90" r="85" fill="#FCFBF7" stroke="#E8622C" stroke-width="4"/><circle cx="90" cy="90" r="77" fill="none" stroke="#E8622C" stroke-width="1.5"/><g clip-path="url(#stamp-3)"><circle cx="90" cy="90" r="73" fill="#DEE8DF"/><circle cx="116" cy="57" r="20" fill="#E8622C"/><path d="M19 118 L42 101 L59 64 L72 75 L86 46 L103 86 L127 78 L146 105 L162 124 L170 180 H10Z" fill="#377650"/><path d="M10 148Q57 100 103 143T178 137V180H0Z" fill="#377650" opacity=".6"/><circle cx="120.00085552457394" cy="108.02633262185189" r="1.1" fill="#FCFBF7" opacity=".3"/><circle cx="39.04391535971687" cy="100.36713258969428" r="0.65" fill="#FCFBF7" opacity=".3"/><circle cx="130.55718240818064" cy="34.17782738812862" r="0.65" fill="#FCFBF7" opacity=".3"/><circle cx="94.86773819201997" cy="132.72358979409327" r="1.1" fill="#FCFBF7" opacity=".3"/><circle cx="44.71742518663366" cy="50.63645826056958" r="0.65" fill="#FCFBF7" opacity=".3"/><circle cx="166.9736140231179" cy="87.98437498029372" r="0.65" fill="#FCFBF7" opacity=".3"/><circle cx="53.31367018272882" cy="125.42757689340888" r="1.1" fill="#FCFBF7" opacity=".3"/><circle cx="94.1513006883702" cy="22.12683370731304" r="0.65" fill="#FCFBF7" opacity=".3"/><circle cx="116.43145642409326" cy="122.6401303811927" r="0.65" fill="#FCFBF7" opacity=".3"/><circle cx="31.648064061646892" cy="81.27924474335305" r="1.1" fill="#FCFBF7" opacity=".3"/><circle cx="153.00685551418303" cy="47.50133933622304" r="0.65" fill="#FCFBF7" opacity=".3"/><circle cx="78.3277318072048" cy="138.61849601988385" r="0.65" fill="#FCFBF7" opacity=".3"/><circle cx="57.51775544349522" cy="31.400479621660587" r="1.1" fill="#FCFBF7" opacity=".3"/><circle cx="128.88126986345418" cy="103.00949091260871" r="0.65" fill="#FCFBF7" opacity=".3"/><circle cx="37.01436345672915" cy="113.59072529839642" r="0.65" fill="#FCFBF7" opacity=".3"/><circle cx="119.90618016939332" cy="21.22049442111563" r="1.1" fill="#FCFBF7" opacity=".3"/><circle cx="105.95283956840053" cy="136.33041020436656" r="0.65" fill="#FCFBF7" opacity=".3"/><circle cx="31.998070564310325" cy="58.507521822865776" r="0.65" fill="#FCFBF7" opacity=".3"/><circle cx="128.81182905103987" cy="80.32312417601327" r="1.1" fill="#FCFBF7" opacity=".3"/><circle cx="58.53959183721281" cy="137.53149185782866" r="0.65" fill="#FCFBF7" opacity=".3"/><circle cx="78.4238495870231" cy="16.91106279595978" r="0.65" fill="#FCFBF7" opacity=".3"/><circle cx="127.56519152891606" cy="119.88070255860549" r="1.1" fill="#FCFBF7" opacity=".3"/><circle cx="25.158336733111426" cy="94.53417079336823" r="0.65" fill="#FCFBF7" opacity=".3"/><circle cx="116.84582845205631" cy="61.7103995305207" r="0.65" fill="#FCFBF7" opacity=".3"/></g><path d="M79 156h22" stroke="#FCFBF7" stroke-width="2" opacity=".7"/></svg></g><text x="186.5" y="353" font-family="Arial, Apple SD Gothic Neo, sans-serif" font-size="15" fill="#20372D" font-weight="600" text-anchor="middle">도봉산</text><text x="186.5" y="375" font-family="Arial, Apple SD Gothic Neo, sans-serif" font-size="13" fill="#657168" font-weight="400" text-anchor="middle">2026.08.22</text><g transform="translate(259.5 252)"><svg class="stamp collected" xmlns="http://www.w3.org/2000/svg" width="76" height="76" viewBox="0 0 180 180" role="img" aria-label="산 스탬프 모음"><defs><clipPath id="stamp-4"><circle cx="90" cy="90" r="73"/></clipPath></defs><circle cx="90" cy="90" r="85" fill="#FCFBF7" stroke="#E8622C" stroke-width="4"/><circle cx="90" cy="90" r="77" fill="none" stroke="#E8622C" stroke-width="1.5"/><g clip-path="url(#stamp-4)"><circle cx="90" cy="90" r="73" fill="#EFDED6"/><circle cx="116" cy="57" r="20" fill="#E8622C"/><path d="M18 128 L34 100 L60 92 L79 64 L96 57 L111 86 L138 90 L161 121 L170 180 H10Z" fill="#377650"/><path d="M10 148Q57 100 103 143T178 137V180H0Z" fill="#377650" opacity=".6"/><circle cx="106.43150469750618" cy="120.90316575006244" r="1.1" fill="#FCFBF7" opacity=".3"/><circle cx="40.982642463206716" cy="72.64204331984394" r="0.65" fill="#FCFBF7" opacity=".3"/><circle cx="153.51483488821836" cy="63.03955213424004" r="0.65" fill="#FCFBF7" opacity=".3"/><circle cx="72.16819056578173" cy="129.12833464769136" r="1.1" fill="#FCFBF7" opacity=".3"/><circle cx="71.45898033750314" cy="32.936609022290796" r="0.65" fill="#FCFBF7" opacity=".3"/><circle cx="157.01738858737235" cy="127.91661412796682" r="0.65" fill="#FCFBF7" opacity=".3"/><circle cx="40.30712669595299" cy="101.47250377153706" r="1.1" fill="#FCFBF7" opacity=".3"/><circle cx="128.5156241108887" cy="33.95941917370297" r="0.65" fill="#FCFBF7" opacity=".3"/><circle cx="95.84527024032279" cy="131.59125888714595" r="0.65" fill="#FCFBF7" opacity=".3"/><circle cx="44.474149580124546" cy="52.4713850036119" r="1.1" fill="#FCFBF7" opacity=".3"/><circle cx="165.8958446413476" cy="86.02246732553617" r="0.65" fill="#FCFBF7" opacity=".3"/><circle cx="54.95453678500744" cy="125.66252245770906" r="0.65" fill="#FCFBF7" opacity=".3"/><circle cx="92.33826627906745" cy="23.040814589720583" r="1.1" fill="#FCFBF7" opacity=".3"/><circle cx="116.62736998153753" cy="121.17664458960127" r="0.65" fill="#FCFBF7" opacity=".3"/><circle cx="32.43232320480331" cy="82.93157808250155" r="0.65" fill="#FCFBF7" opacity=".3"/><circle cx="151.05866387672378" cy="46.44727832167929" r="1.1" fill="#FCFBF7" opacity=".3"/><circle cx="79.81232714993007" cy="137.92923243595652" r="0.65" fill="#FCFBF7" opacity=".3"/><circle cx="56.50246804459349" cy="33.13247541085932" r="0.65" fill="#FCFBF7" opacity=".3"/><circle cx="128.25219023852145" cy="101.69486818890938" r="1.1" fill="#FCFBF7" opacity=".3"/><circle cx="38.55263879205788" cy="114.53913251807268" r="0.65" fill="#FCFBF7" opacity=".3"/><circle cx="117.72088791277706" cy="21.38839476205756" r="0.65" fill="#FCFBF7" opacity=".3"/><circle cx="106.80995430045448" cy="134.96026508392308" r="1.1" fill="#FCFBF7" opacity=".3"/><circle cx="32.084575927756" cy="60.49061751692963" r="0.65" fill="#FCFBF7" opacity=".3"/><circle cx="127.58158767513632" cy="79.57770333294806" r="0.65" fill="#FCFBF7" opacity=".3"/></g><path d="M79 156h22" stroke="#FCFBF7" stroke-width="2" opacity=".7"/></svg></g><text x="297.5" y="353" font-family="Arial, Apple SD Gothic Neo, sans-serif" font-size="15" fill="#20372D" font-weight="600" text-anchor="middle">관악산</text><text x="297.5" y="375" font-family="Arial, Apple SD Gothic Neo, sans-serif" font-size="13" fill="#657168" font-weight="400" text-anchor="middle">2026.05.16</text><g transform="translate(37.5 388)"><svg class="stamp uncollected" xmlns="http://www.w3.org/2000/svg" width="76" height="76" viewBox="0 0 180 180" role="img" aria-label="산 스탬프 미모음"><defs><clipPath id="stamp-5"><circle cx="90" cy="90" r="73"/></clipPath></defs><circle cx="90" cy="90" r="85" fill="#EEEFE7" stroke="#D9DDD2" stroke-width="4"/><circle cx="90" cy="90" r="77" fill="none" stroke="#FAFAF5" stroke-width="1.5"/><g clip-path="url(#stamp-5)"><circle cx="90" cy="90" r="73" fill="#EEEFE7"/><path d="M19 124 L36 96 L61 95 L76 69 L89 51 L106 89 L120 78 L148 113 L161 127 L170 180 H10Z" fill="#D4DACE"/></g></svg></g><text x="75.5" y="489" font-family="Arial, Apple SD Gothic Neo, sans-serif" font-size="15" fill="#657168" font-weight="400" text-anchor="middle">수락산</text><text x="75.5" y="511" font-family="Arial, Apple SD Gothic Neo, sans-serif" font-size="13" fill="#657168" font-weight="400" text-anchor="middle">638m</text><g transform="translate(148.5 388)"><svg class="stamp uncollected" xmlns="http://www.w3.org/2000/svg" width="76" height="76" viewBox="0 0 180 180" role="img" aria-label="산 스탬프 미모음"><defs><clipPath id="stamp-6"><circle cx="90" cy="90" r="73"/></clipPath></defs><circle cx="90" cy="90" r="85" fill="#EEEFE7" stroke="#D9DDD2" stroke-width="4"/><circle cx="90" cy="90" r="77" fill="none" stroke="#FAFAF5" stroke-width="1.5"/><g clip-path="url(#stamp-6)"><circle cx="90" cy="90" r="73" fill="#EEEFE7"/><path d="M20 117 L42 86 L56 81 L86 52 L97 73 L112 79 L124 78 L147 109 L162 122 L170 180 H10Z" fill="#D4DACE"/></g></svg></g><text x="186.5" y="489" font-family="Arial, Apple SD Gothic Neo, sans-serif" font-size="15" fill="#657168" font-weight="400" text-anchor="middle">소요산</text><text x="186.5" y="511" font-family="Arial, Apple SD Gothic Neo, sans-serif" font-size="13" fill="#657168" font-weight="400" text-anchor="middle">587m</text><g transform="translate(259.5 388)"><svg class="stamp uncollected" xmlns="http://www.w3.org/2000/svg" width="76" height="76" viewBox="0 0 180 180" role="img" aria-label="산 스탬프 미모음"><defs><clipPath id="stamp-7"><circle cx="90" cy="90" r="73"/></clipPath></defs><circle cx="90" cy="90" r="85" fill="#EEEFE7" stroke="#D9DDD2" stroke-width="4"/><circle cx="90" cy="90" r="77" fill="none" stroke="#FAFAF5" stroke-width="1.5"/><g clip-path="url(#stamp-7)"><circle cx="90" cy="90" r="73" fill="#EEEFE7"/><path d="M19 118 L37 98 L54 61 L76 83 L90 43 L107 83 L122 75 L141 113 L162 124 L170 180 H10Z" fill="#D4DACE"/></g></svg></g><text x="297.5" y="489" font-family="Arial, Apple SD Gothic Neo, sans-serif" font-size="15" fill="#657168" font-weight="400" text-anchor="middle">감악산</text><text x="297.5" y="511" font-family="Arial, Apple SD Gothic Neo, sans-serif" font-size="13" fill="#657168" font-weight="400" text-anchor="middle">675m</text><g transform="translate(37.5 524)"><svg class="stamp uncollected" xmlns="http://www.w3.org/2000/svg" width="76" height="76" viewBox="0 0 180 180" role="img" aria-label="산 스탬프 미모음"><defs><clipPath id="stamp-8"><circle cx="90" cy="90" r="73"/></clipPath></defs><circle cx="90" cy="90" r="85" fill="#EEEFE7" stroke="#D9DDD2" stroke-width="4"/><circle cx="90" cy="90" r="77" fill="none" stroke="#FAFAF5" stroke-width="1.5"/><g clip-path="url(#stamp-8)"><circle cx="90" cy="90" r="73" fill="#EEEFE7"/><path d="M18 128 L38 97 L55 89 L74 72 L100 54 L115 83 L133 98 L156 118 L170 180 H10Z" fill="#D4DACE"/></g></svg></g><text x="75.5" y="625" font-family="Arial, Apple SD Gothic Neo, sans-serif" font-size="15" fill="#657168" font-weight="400" text-anchor="middle">명지산</text><text x="75.5" y="647" font-family="Arial, Apple SD Gothic Neo, sans-serif" font-size="13" fill="#657168" font-weight="400" text-anchor="middle">1,267m</text><g transform="translate(148.5 524)"><svg class="stamp uncollected" xmlns="http://www.w3.org/2000/svg" width="76" height="76" viewBox="0 0 180 180" role="img" aria-label="산 스탬프 미모음"><defs><clipPath id="stamp-9"><circle cx="90" cy="90" r="73"/></clipPath></defs><circle cx="90" cy="90" r="85" fill="#EEEFE7" stroke="#D9DDD2" stroke-width="4"/><circle cx="90" cy="90" r="77" fill="none" stroke="#FAFAF5" stroke-width="1.5"/><g clip-path="url(#stamp-9)"><circle cx="90" cy="90" r="73" fill="#EEEFE7"/><path d="M19 124 L40 93 L56 103 L71 66 L93 48 L110 86 L124 86 L143 110 L161 127 L170 180 H10Z" fill="#D4DACE"/></g></svg></g><text x="186.5" y="625" font-family="Arial, Apple SD Gothic Neo, sans-serif" font-size="15" fill="#657168" font-weight="400" text-anchor="middle">운악산</text><text x="186.5" y="647" font-family="Arial, Apple SD Gothic Neo, sans-serif" font-size="13" fill="#657168" font-weight="400" text-anchor="middle">935m</text><g transform="translate(259.5 524)"><svg class="stamp uncollected" xmlns="http://www.w3.org/2000/svg" width="76" height="76" viewBox="0 0 180 180" role="img" aria-label="산 스탬프 미모음"><defs><clipPath id="stamp-10"><circle cx="90" cy="90" r="73"/></clipPath></defs><circle cx="90" cy="90" r="85" fill="#EEEFE7" stroke="#D9DDD2" stroke-width="4"/><circle cx="90" cy="90" r="77" fill="none" stroke="#FAFAF5" stroke-width="1.5"/><g clip-path="url(#stamp-10)"><circle cx="90" cy="90" r="73" fill="#EEEFE7"/><path d="M20 117 L46 94 L60 78 L81 49 L92 70 L116 87 L128 75 L142 106 L162 122 L170 180 H10Z" fill="#D4DACE"/></g></svg></g><text x="297.5" y="625" font-family="Arial, Apple SD Gothic Neo, sans-serif" font-size="15" fill="#657168" font-weight="400" text-anchor="middle">화악산</text><text x="297.5" y="647" font-family="Arial, Apple SD Gothic Neo, sans-serif" font-size="13" fill="#657168" font-weight="400" text-anchor="middle">1,468m</text><g transform="translate(37.5 660)"><svg class="stamp uncollected" xmlns="http://www.w3.org/2000/svg" width="76" height="76" viewBox="0 0 180 180" role="img" aria-label="산 스탬프 미모음"><defs><clipPath id="stamp-11"><circle cx="90" cy="90" r="73"/></clipPath></defs><circle cx="90" cy="90" r="85" fill="#EEEFE7" stroke="#D9DDD2" stroke-width="4"/><circle cx="90" cy="90" r="77" fill="none" stroke="#FAFAF5" stroke-width="1.5"/><g clip-path="url(#stamp-11)"><circle cx="90" cy="90" r="73" fill="#EEEFE7"/><path d="M19 118 L41 106 L58 58 L71 80 L85 51 L111 80 L126 72 L145 110 L162 124 L170 180 H10Z" fill="#D4DACE"/></g></svg></g><text x="75.5" y="761" font-family="Arial, Apple SD Gothic Neo, sans-serif" font-size="15" fill="#657168" font-weight="400" text-anchor="middle">축령산</text><text x="75.5" y="783" font-family="Arial, Apple SD Gothic Neo, sans-serif" font-size="13" fill="#657168" font-weight="400" text-anchor="middle">879m</text><g transform="translate(148.5 660)"><svg class="stamp uncollected" xmlns="http://www.w3.org/2000/svg" width="76" height="76" viewBox="0 0 180 180" role="img" aria-label="산 스탬프 미모음"><defs><clipPath id="stamp-12"><circle cx="90" cy="90" r="73"/></clipPath></defs><circle cx="90" cy="90" r="85" fill="#EEEFE7" stroke="#D9DDD2" stroke-width="4"/><circle cx="90" cy="90" r="77" fill="none" stroke="#FAFAF5" stroke-width="1.5"/><g clip-path="url(#stamp-12)"><circle cx="90" cy="90" r="73" fill="#EEEFE7"/><path d="M18 128 L42 94 L59 86 L78 69 L95 62 L110 80 L137 95 L160 126 L170 180 H10Z" fill="#D4DACE"/></g></svg></g><text x="186.5" y="761" font-family="Arial, Apple SD Gothic Neo, sans-serif" font-size="15" fill="#657168" font-weight="400" text-anchor="middle">용문산</text><text x="186.5" y="783" font-family="Arial, Apple SD Gothic Neo, sans-serif" font-size="13" fill="#657168" font-weight="400" text-anchor="middle">1,157m</text><g transform="translate(259.5 660)"><svg class="stamp uncollected" xmlns="http://www.w3.org/2000/svg" width="76" height="76" viewBox="0 0 180 180" role="img" aria-label="산 스탬프 미모음"><defs><clipPath id="stamp-13"><circle cx="90" cy="90" r="73"/></clipPath></defs><circle cx="90" cy="90" r="85" fill="#EEEFE7" stroke="#D9DDD2" stroke-width="4"/><circle cx="90" cy="90" r="77" fill="none" stroke="#FAFAF5" stroke-width="1.5"/><g clip-path="url(#stamp-13)"><circle cx="90" cy="90" r="73" fill="#EEEFE7"/><path d="M19 124 L35 90 L60 100 L75 74 L88 45 L105 83 L128 83 L147 118 L161 127 L170 180 H10Z" fill="#D4DACE"/></g></svg></g><text x="297.5" y="761" font-family="Arial, Apple SD Gothic Neo, sans-serif" font-size="15" fill="#657168" font-weight="400" text-anchor="middle">유명산</text><text x="297.5" y="783" font-family="Arial, Apple SD Gothic Neo, sans-serif" font-size="13" fill="#657168" font-weight="400" text-anchor="middle">862m</text><g transform="translate(37.5 796)"><svg class="stamp uncollected" xmlns="http://www.w3.org/2000/svg" width="76" height="76" viewBox="0 0 180 180" role="img" aria-label="산 스탬프 미모음"><defs><clipPath id="stamp-14"><circle cx="90" cy="90" r="73"/></clipPath></defs><circle cx="90" cy="90" r="85" fill="#EEEFE7" stroke="#D9DDD2" stroke-width="4"/><circle cx="90" cy="90" r="77" fill="none" stroke="#FAFAF5" stroke-width="1.5"/><g clip-path="url(#stamp-14)"><circle cx="90" cy="90" r="73" fill="#EEEFE7"/><path d="M20 117 L41 91 L64 86 L85 46 L96 67 L111 84 L123 83 L146 103 L162 122 L170 180 H10Z" fill="#D4DACE"/></g></svg></g><text x="75.5" y="897" font-family="Arial, Apple SD Gothic Neo, sans-serif" font-size="15" fill="#657168" font-weight="400" text-anchor="middle">천마산</text><text x="75.5" y="919" font-family="Arial, Apple SD Gothic Neo, sans-serif" font-size="13" fill="#657168" font-weight="400" text-anchor="middle">812m</text><g transform="translate(148.5 796)"><svg class="stamp uncollected" xmlns="http://www.w3.org/2000/svg" width="76" height="76" viewBox="0 0 180 180" role="img" aria-label="산 스탬프 미모음"><defs><clipPath id="stamp-15"><circle cx="90" cy="90" r="73"/></clipPath></defs><circle cx="90" cy="90" r="85" fill="#EEEFE7" stroke="#D9DDD2" stroke-width="4"/><circle cx="90" cy="90" r="77" fill="none" stroke="#FAFAF5" stroke-width="1.5"/><g clip-path="url(#stamp-15)"><circle cx="90" cy="90" r="73" fill="#EEEFE7"/><path d="M19 118 L36 103 L53 66 L75 77 L89 48 L106 88 L121 69 L149 107 L162 124 L170 180 H10Z" fill="#D4DACE"/></g></svg></g><text x="186.5" y="897" font-family="Arial, Apple SD Gothic Neo, sans-serif" font-size="15" fill="#657168" font-weight="400" text-anchor="middle">마니산</text><text x="186.5" y="919" font-family="Arial, Apple SD Gothic Neo, sans-serif" font-size="13" fill="#657168" font-weight="400" text-anchor="middle">472m</text><text x="24" y="964" font-family="Arial, Apple SD Gothic Neo, sans-serif" font-size="20" fill="#20372D" font-weight="600" text-anchor="start">강원</text><text x="351" y="964" font-family="Arial, Apple SD Gothic Neo, sans-serif" font-size="15" fill="#657168" font-weight="400" text-anchor="end">2 / 22</text><g transform="translate(37.5 988)"><svg class="stamp collected" xmlns="http://www.w3.org/2000/svg" width="76" height="76" viewBox="0 0 180 180" role="img" aria-label="산 스탬프 모음"><defs><clipPath id="stamp-16"><circle cx="90" cy="90" r="73"/></clipPath></defs><circle cx="90" cy="90" r="85" fill="#FCFBF7" stroke="#E8622C" stroke-width="4"/><circle cx="90" cy="90" r="77" fill="none" stroke="#E8622C" stroke-width="1.5"/><g clip-path="url(#stamp-16)"><circle cx="90" cy="90" r="73" fill="#DAE7E9"/><circle cx="116" cy="57" r="20" fill="#E8622C"/><path d="M18 128 L37 102 L54 83 L82 66 L99 59 L114 88 L132 92 L155 123 L170 180 H10Z" fill="#30485A"/><path d="M84 79L99 59L115 81L103 75L96 81Z" fill="#FCFBF7"/><path d="M10 148Q57 100 103 143T178 137V180H0Z" fill="#30485A" opacity=".6"/><circle cx="99.64730745359499" cy="123.64415935784115" r="1.1" fill="#FCFBF7" opacity=".3"/><circle cx="45.66271145358723" cy="62.83007463477062" r="0.65" fill="#FCFBF7" opacity=".3"/><circle cx="157.7322756578888" cy="76.83417931901835" r="0.65" fill="#FCFBF7" opacity=".3"/><circle cx="64.42262016969237" cy="124.56584500654037" r="1.1" fill="#FCFBF7" opacity=".3"/><circle cx="83.72829220394082" cy="30.328686277903593" r="0.65" fill="#FCFBF7" opacity=".3"/><circle cx="147.66959050075323" cy="141.0217437126117" r="0.65" fill="#FCFBF7" opacity=".3"/><circle cx="39.007767547024045" cy="90.89007272830145" r="1.1" fill="#FCFBF7" opacity=".3"/><circle cx="139.32545722883566" cy="43.191888852824825" r="0.65" fill="#FCFBF7" opacity=".3"/><circle cx="87.07022810274674" cy="131.8976901109126" r="0.65" fill="#FCFBF7" opacity=".3"/><circle cx="53.27163643838052" cy="43.82611874570752" r="1.1" fill="#FCFBF7" opacity=".3"/><circle cx="165.0643138852305" cy="101.88901934305753" r="0.65" fill="#FCFBF7" opacity=".3"/><circle cx="48.30570889664165" cy="117.596849265603" r="0.65" fill="#FCFBF7" opacity=".3"/><circle cx="106.20876700517746" cy="24.99018633950817" r="1.1" fill="#FCFBF7" opacity=".3"/><circle cx="109.56350917064391" cy="126.0315016191406" r="0.65" fill="#FCFBF7" opacity=".3"/><circle cx="35.15992261523961" cy="71.11704704148497" r="0.65" fill="#FCFBF7" opacity=".3"/><circle cx="158.77950557888423" cy="60.093819830606336" r="1.1" fill="#FCFBF7" opacity=".3"/><circle cx="70.06990448928568" cy="134.7637274244874" r="0.65" fill="#FCFBF7" opacity=".3"/><circle cx="69.05789267726395" cy="27.41063875639084" r="0.65" fill="#FCFBF7" opacity=".3"/><circle cx="124.98478828557586" cy="109.39238480985343" r="1.1" fill="#FCFBF7" opacity=".3"/><circle cx="34.57491453733248" cy="103.3063857397868" r="0.65" fill="#FCFBF7" opacity=".3"/><circle cx="131.38027485683537" cy="28.651219630926988" r="0.65" fill="#FCFBF7" opacity=".3"/><circle cx="97.09485173422165" cy="137.47276144137197" r="1.1" fill="#FCFBF7" opacity=".3"/><circle cx="39.48551250529681" cy="49.09417458176067" r="0.65" fill="#FCFBF7" opacity=".3"/><circle cx="128.9272571384528" cy="87.61910695814042" r="0.65" fill="#FCFBF7" opacity=".3"/></g><path d="M79 156h22" stroke="#FCFBF7" stroke-width="2" opacity=".7"/></svg></g><text x="75.5" y="1089" font-family="Arial, Apple SD Gothic Neo, sans-serif" font-size="15" fill="#20372D" font-weight="600" text-anchor="middle">설악산</text><text x="75.5" y="1111" font-family="Arial, Apple SD Gothic Neo, sans-serif" font-size="13" fill="#657168" font-weight="400" text-anchor="middle">2026.02.14</text><g transform="translate(148.5 988)"><svg class="stamp collected" xmlns="http://www.w3.org/2000/svg" width="76" height="76" viewBox="0 0 180 180" role="img" aria-label="산 스탬프 모음"><defs><clipPath id="stamp-17"><circle cx="90" cy="90" r="73"/></clipPath></defs><circle cx="90" cy="90" r="85" fill="#FCFBF7" stroke="#E8622C" stroke-width="4"/><circle cx="90" cy="90" r="77" fill="none" stroke="#E8622C" stroke-width="1.5"/><g clip-path="url(#stamp-17)"><circle cx="90" cy="90" r="73" fill="#DEE8DF"/><circle cx="116" cy="57" r="20" fill="#E8622C"/><path d="M19 124 L39 87 L55 97 L70 71 L92 53 L109 80 L123 80 L142 115 L161 127 L170 180 H10Z" fill="#30485A"/><path d="M77 73L92 53L108 75L96 69L89 75Z" fill="#FCFBF7"/><path d="M10 148Q57 100 103 143T178 137V180H0Z" fill="#30485A" opacity=".6"/><circle cx="80.9413334214118" cy="123.8074039201174" r="1.1" fill="#FCFBF7" opacity=".3"/><circle cx="65.9890721117782" cy="43.87543667473249" r="0.65" fill="#FCFBF7" opacity=".3"/><circle cx="154.8387908342277" cy="113.59938988947108" r="0.65" fill="#FCFBF7" opacity=".3"/><circle cx="50.273180102014685" cy="106.4553875916989" r="1.1" fill="#FCFBF7" opacity=".3"/><circle cx="115.3570957044419" cy="35.62153277780097" r="0.65" fill="#FCFBF7" opacity=".3"/><circle cx="113.15434656182899" cy="163.43620520761348" r="0.65" fill="#FCFBF7" opacity=".3"/><circle cx="45.83270440699359" cy="64.50000000000006" r="1.1" fill="#FCFBF7" opacity=".3"/><circle cx="156.3881284841554" cy="75.28210625220878" r="0.65" fill="#FCFBF7" opacity=".3"/><circle cx="65.90978967325611" cy="124.4043858601377" r="0.65" fill="#FCFBF7" opacity=".3"/><circle cx="82.29895465901694" cy="31.504753178945187" r="1.1" fill="#FCFBF7" opacity=".3"/><circle cx="148.21937767704242" cy="138.85185833617686" r="0.65" fill="#FCFBF7" opacity=".3"/><circle cx="40.0475889209071" cy="92.18096936826664" r="0.65" fill="#FCFBF7" opacity=".3"/><circle cx="137.37615433949873" cy="42.623845660501374" r="1.1" fill="#FCFBF7" opacity=".3"/><circle cx="88.21160511802125" cy="130.96097708485615" r="0.65" fill="#FCFBF7" opacity=".3"/><circle cx="52.7183186381806" cy="45.56942229909937" r="0.65" fill="#FCFBF7" opacity=".3"/><circle cx="164.35836460303574" cy="99.78946441650406" r="1.1" fill="#FCFBF7" opacity=".3"/><circle cx="49.86154982983938" cy="118.10524538120123" r="0.65" fill="#FCFBF7" opacity=".3"/><circle cx="104.28501451991426" cy="25.564463530084282" r="0.65" fill="#FCFBF7" opacity=".3"/><circle cx="110.00000000000011" cy="124.64101615137749" r="1.1" fill="#FCFBF7" opacity=".3"/><circle cx="35.6381338073511" cy="72.85976942825633" r="0.65" fill="#FCFBF7" opacity=".3"/><circle cx="157.0667762407121" cy="58.72624863118824" r="0.65" fill="#FCFBF7" opacity=".3"/><circle cx="71.63119524647546" cy="134.34621756054167" r="1.1" fill="#FCFBF7" opacity=".3"/><circle cx="67.7686906838313" cy="28.91997964891604" r="0.65" fill="#FCFBF7" opacity=".3"/><circle cx="124.59342249395061" cy="108.00819591616637" r="0.65" fill="#FCFBF7" opacity=".3"/></g><path d="M79 156h22" stroke="#FCFBF7" stroke-width="2" opacity=".7"/></svg></g><text x="186.5" y="1089" font-family="Arial, Apple SD Gothic Neo, sans-serif" font-size="15" fill="#20372D" font-weight="600" text-anchor="middle">오대산</text><text x="186.5" y="1111" font-family="Arial, Apple SD Gothic Neo, sans-serif" font-size="13" fill="#657168" font-weight="400" text-anchor="middle">2026.07.18</text><g transform="translate(259.5 988)"><svg class="stamp uncollected" xmlns="http://www.w3.org/2000/svg" width="76" height="76" viewBox="0 0 180 180" role="img" aria-label="산 스탬프 미모음"><defs><clipPath id="stamp-18"><circle cx="90" cy="90" r="73"/></clipPath></defs><circle cx="90" cy="90" r="85" fill="#EEEFE7" stroke="#D9DDD2" stroke-width="4"/><circle cx="90" cy="90" r="77" fill="none" stroke="#FAFAF5" stroke-width="1.5"/><g clip-path="url(#stamp-18)"><circle cx="90" cy="90" r="73" fill="#EEEFE7"/><path d="M20 117 L45 88 L59 83 L80 54 L100 64 L115 81 L127 80 L141 111 L162 122 L170 180 H10Z" fill="#D4DACE"/></g></svg></g><text x="297.5" y="1089" font-family="Arial, Apple SD Gothic Neo, sans-serif" font-size="15" fill="#657168" font-weight="400" text-anchor="middle">치악산</text><text x="297.5" y="1111" font-family="Arial, Apple SD Gothic Neo, sans-serif" font-size="13" fill="#657168" font-weight="400" text-anchor="middle">1,288m</text><text x="24" y="1156" font-family="Arial, Apple SD Gothic Neo, sans-serif" font-size="20" fill="#20372D" font-weight="600" text-anchor="start">충청</text><text x="351" y="1156" font-family="Arial, Apple SD Gothic Neo, sans-serif" font-size="15" fill="#657168" font-weight="400" text-anchor="end">1 / 12</text><g transform="translate(37.5 1180)"><svg class="stamp collected" xmlns="http://www.w3.org/2000/svg" width="76" height="76" viewBox="0 0 180 180" role="img" aria-label="산 스탬프 모음"><defs><clipPath id="stamp-19"><circle cx="90" cy="90" r="73"/></clipPath></defs><circle cx="90" cy="90" r="85" fill="#FCFBF7" stroke="#E8622C" stroke-width="4"/><circle cx="90" cy="90" r="77" fill="none" stroke="#E8622C" stroke-width="1.5"/><g clip-path="url(#stamp-19)"><circle cx="90" cy="90" r="73" fill="#EFDED6"/><circle cx="116" cy="57" r="20" fill="#E8622C"/><path d="M19 118 L40 100 L57 63 L70 85 L84 45 L110 85 L125 77 L144 104 L162 124 L170 180 H10Z" fill="#377650"/><path d="M10 148Q57 100 103 143T178 137V180H0Z" fill="#377650" opacity=".6"/><circle cx="55.89704773251677" cy="97.87328690203529" r="1.1" fill="#FCFBF7" opacity=".3"/><circle cx="119.45312432009129" cy="47.14543819165517" r="0.65" fill="#FCFBF7" opacity=".3"/><circle cx="99.60294396624457" cy="158.32849674316833" r="0.65" fill="#FCFBF7" opacity=".3"/><circle cx="56.82014291432797" cy="62.64863652805624" r="1.1" fill="#FCFBF7" opacity=".3"/><circle cx="149.91777208527444" cy="86.85984262542331" r="0.65" fill="#FCFBF7" opacity=".3"/><circle cx="36.029986648911446" cy="144.92028458487195" r="0.65" fill="#FCFBF7" opacity=".3"/><circle cx="91.77987433182749" cy="39.03106782202612" r="1.1" fill="#FCFBF7" opacity=".3"/><circle cx="134.16246728645248" cy="141.70760566080213" r="0.65" fill="#FCFBF7" opacity=".3"/><circle cx="48.313061631064464" cy="84.88148757698387" r="0.65" fill="#FCFBF7" opacity=".3"/><circle cx="138.03281558302285" cy="55.738525613054556" r="1.1" fill="#FCFBF7" opacity=".3"/><circle cx="74.19871149785017" cy="164.3392176557692" r="0.65" fill="#FCFBF7" opacity=".3"/><circle cx="64.62308185196477" cy="46.918541977923724" r="0.65" fill="#FCFBF7" opacity=".3"/><circle cx="154.0724186495234" cy="109.58890421642323" r="1.1" fill="#FCFBF7" opacity=".3"/><circle cx="52.994003341655784" cy="107.65095496914026" r="0.65" fill="#FCFBF7" opacity=".3"/><circle cx="111.72718241812257" cy="36.2233364351262" r="0.65" fill="#FCFBF7" opacity=".3"/><circle cx="116.26555359446012" cy="160.2504141936298" r="1.1" fill="#FCFBF7" opacity=".3"/><circle cx="46.34068031477007" cy="67.75446551276201" r="0.65" fill="#FCFBF7" opacity=".3"/><circle cx="153.59960991176905" cy="72.36226717883476" r="0.65" fill="#FCFBF7" opacity=".3"/><circle cx="68.80322943067179" cy="123.92192384625703" r="1.1" fill="#FCFBF7" opacity=".3"/><circle cx="79.61257504694751" cy="33.95447026885461" r="0.65" fill="#FCFBF7" opacity=".3"/><circle cx="149.09902774349982" cy="134.53431171325138" r="0.65" fill="#FCFBF7" opacity=".3"/><circle cx="42.22098247837544" cy="94.600596120971" r="1.1" fill="#FCFBF7" opacity=".3"/><circle cx="133.4934894133258" cy="41.695586343969374" r="0.65" fill="#FCFBF7" opacity=".3"/><circle cx="90.34033488443694" cy="128.99851499950267" r="0.65" fill="#FCFBF7" opacity=".3"/></g><path d="M79 156h22" stroke="#FCFBF7" stroke-width="2" opacity=".7"/></svg></g><text x="75.5" y="1281" font-family="Arial, Apple SD Gothic Neo, sans-serif" font-size="15" fill="#20372D" font-weight="600" text-anchor="middle">계룡산</text><text x="75.5" y="1303" font-family="Arial, Apple SD Gothic Neo, sans-serif" font-size="13" fill="#657168" font-weight="400" text-anchor="middle">2026.04.11</text><g transform="translate(148.5 1180)"><svg class="stamp uncollected" xmlns="http://www.w3.org/2000/svg" width="76" height="76" viewBox="0 0 180 180" role="img" aria-label="산 스탬프 미모음"><defs><clipPath id="stamp-20"><circle cx="90" cy="90" r="73"/></clipPath></defs><circle cx="90" cy="90" r="85" fill="#EEEFE7" stroke="#D9DDD2" stroke-width="4"/><circle cx="90" cy="90" r="77" fill="none" stroke="#FAFAF5" stroke-width="1.5"/><g clip-path="url(#stamp-20)"><circle cx="90" cy="90" r="73" fill="#EEEFE7"/><path d="M18 128 L41 99 L58 91 L77 63 L94 56 L118 85 L136 100 L159 120 L170 180 H10Z" fill="#D4DACE"/></g></svg></g><text x="186.5" y="1281" font-family="Arial, Apple SD Gothic Neo, sans-serif" font-size="15" fill="#657168" font-weight="400" text-anchor="middle">속리산</text><text x="186.5" y="1303" font-family="Arial, Apple SD Gothic Neo, sans-serif" font-size="13" fill="#657168" font-weight="400" text-anchor="middle">1,058m</text><g transform="translate(259.5 1180)"><svg class="stamp uncollected" xmlns="http://www.w3.org/2000/svg" width="76" height="76" viewBox="0 0 180 180" role="img" aria-label="산 스탬프 미모음"><defs><clipPath id="stamp-21"><circle cx="90" cy="90" r="73"/></clipPath></defs><circle cx="90" cy="90" r="85" fill="#EEEFE7" stroke="#D9DDD2" stroke-width="4"/><circle cx="90" cy="90" r="77" fill="none" stroke="#FAFAF5" stroke-width="1.5"/><g clip-path="url(#stamp-21)"><circle cx="90" cy="90" r="73" fill="#EEEFE7"/><path d="M19 124 L43 95 L59 94 L74 68 L87 50 L104 88 L127 77 L146 112 L161 127 L170 180 H10Z" fill="#D4DACE"/></g></svg></g><text x="297.5" y="1281" font-family="Arial, Apple SD Gothic Neo, sans-serif" font-size="15" fill="#657168" font-weight="400" text-anchor="middle">월악산</text><text x="297.5" y="1303" font-family="Arial, Apple SD Gothic Neo, sans-serif" font-size="13" fill="#657168" font-weight="400" text-anchor="middle">1,097m</text><text x="24" y="1348" font-family="Arial, Apple SD Gothic Neo, sans-serif" font-size="20" fill="#20372D" font-weight="600" text-anchor="start">전라</text><text x="351" y="1348" font-family="Arial, Apple SD Gothic Neo, sans-serif" font-size="15" fill="#657168" font-weight="400" text-anchor="end">0 / 18</text><g transform="translate(37.5 1372)"><svg class="stamp uncollected" xmlns="http://www.w3.org/2000/svg" width="76" height="76" viewBox="0 0 180 180" role="img" aria-label="산 스탬프 미모음"><defs><clipPath id="stamp-22"><circle cx="90" cy="90" r="73"/></clipPath></defs><circle cx="90" cy="90" r="85" fill="#EEEFE7" stroke="#D9DDD2" stroke-width="4"/><circle cx="90" cy="90" r="77" fill="none" stroke="#FAFAF5" stroke-width="1.5"/><g clip-path="url(#stamp-22)"><circle cx="90" cy="90" r="73" fill="#EEEFE7"/><path d="M20 117 L40 96 L63 80 L84 51 L95 72 L110 78 L131 77 L145 108 L162 122 L170 180 H10Z" fill="#D4DACE"/></g></svg></g><text x="75.5" y="1473" font-family="Arial, Apple SD Gothic Neo, sans-serif" font-size="15" fill="#657168" font-weight="400" text-anchor="middle">내장산</text><text x="75.5" y="1495" font-family="Arial, Apple SD Gothic Neo, sans-serif" font-size="13" fill="#657168" font-weight="400" text-anchor="middle">763m</text><g transform="translate(148.5 1372)"><svg class="stamp uncollected" xmlns="http://www.w3.org/2000/svg" width="76" height="76" viewBox="0 0 180 180" role="img" aria-label="산 스탬프 미모음"><defs><clipPath id="stamp-23"><circle cx="90" cy="90" r="73"/></clipPath></defs><circle cx="90" cy="90" r="85" fill="#EEEFE7" stroke="#D9DDD2" stroke-width="4"/><circle cx="90" cy="90" r="77" fill="none" stroke="#FAFAF5" stroke-width="1.5"/><g clip-path="url(#stamp-23)"><circle cx="90" cy="90" r="73" fill="#EEEFE7"/><path d="M19 118 L35 97 L61 60 L74 82 L88 53 L105 82 L120 74 L148 112 L162 124 L170 180 H10Z" fill="#D4DACE"/></g></svg></g><text x="186.5" y="1473" font-family="Arial, Apple SD Gothic Neo, sans-serif" font-size="15" fill="#657168" font-weight="400" text-anchor="middle">덕유산</text><text x="186.5" y="1495" font-family="Arial, Apple SD Gothic Neo, sans-serif" font-size="13" fill="#657168" font-weight="400" text-anchor="middle">1,614m</text><g transform="translate(259.5 1372)"><svg class="stamp uncollected" xmlns="http://www.w3.org/2000/svg" width="76" height="76" viewBox="0 0 180 180" role="img" aria-label="산 스탬프 미모음"><defs><clipPath id="stamp-24"><circle cx="90" cy="90" r="73"/></clipPath></defs><circle cx="90" cy="90" r="85" fill="#EEEFE7" stroke="#D9DDD2" stroke-width="4"/><circle cx="90" cy="90" r="77" fill="none" stroke="#FAFAF5" stroke-width="1.5"/><g clip-path="url(#stamp-24)"><circle cx="90" cy="90" r="73" fill="#EEEFE7"/><path d="M18 128 L36 96 L53 88 L81 71 L98 53 L113 82 L131 97 L163 128 L170 180 H10Z" fill="#D4DACE"/></g></svg></g><text x="297.5" y="1473" font-family="Arial, Apple SD Gothic Neo, sans-serif" font-size="15" fill="#657168" font-weight="400" text-anchor="middle">월출산</text><text x="297.5" y="1495" font-family="Arial, Apple SD Gothic Neo, sans-serif" font-size="13" fill="#657168" font-weight="400" text-anchor="middle">809m</text><text x="24" y="1540" font-family="Arial, Apple SD Gothic Neo, sans-serif" font-size="20" fill="#20372D" font-weight="600" text-anchor="start">경상</text><text x="351" y="1540" font-family="Arial, Apple SD Gothic Neo, sans-serif" font-size="15" fill="#657168" font-weight="400" text-anchor="end">0 / 28</text><g transform="translate(37.5 1564)"><svg class="stamp uncollected" xmlns="http://www.w3.org/2000/svg" width="76" height="76" viewBox="0 0 180 180" role="img" aria-label="산 스탬프 미모음"><defs><clipPath id="stamp-25"><circle cx="90" cy="90" r="73"/></clipPath></defs><circle cx="90" cy="90" r="85" fill="#EEEFE7" stroke="#D9DDD2" stroke-width="4"/><circle cx="90" cy="90" r="77" fill="none" stroke="#FAFAF5" stroke-width="1.5"/><g clip-path="url(#stamp-25)"><circle cx="90" cy="90" r="73" fill="#EEEFE7"/><path d="M19 124 L38 92 L54 102 L78 65 L91 47 L108 85 L122 85 L141 109 L161 127 L170 180 H10Z" fill="#D4DACE"/></g></svg></g><text x="75.5" y="1665" font-family="Arial, Apple SD Gothic Neo, sans-serif" font-size="15" fill="#657168" font-weight="400" text-anchor="middle">지리산(통영)</text><text x="75.5" y="1687" font-family="Arial, Apple SD Gothic Neo, sans-serif" font-size="13" fill="#657168" font-weight="400" text-anchor="middle">398m</text><g transform="translate(148.5 1564)"><svg class="stamp uncollected" xmlns="http://www.w3.org/2000/svg" width="76" height="76" viewBox="0 0 180 180" role="img" aria-label="산 스탬프 미모음"><defs><clipPath id="stamp-26"><circle cx="90" cy="90" r="73"/></clipPath></defs><circle cx="90" cy="90" r="85" fill="#EEEFE7" stroke="#D9DDD2" stroke-width="4"/><circle cx="90" cy="90" r="77" fill="none" stroke="#FAFAF5" stroke-width="1.5"/><g clip-path="url(#stamp-26)"><circle cx="90" cy="90" r="73" fill="#EEEFE7"/><path d="M20 117 L44 93 L58 88 L79 48 L99 69 L114 86 L126 74 L140 105 L162 122 L170 180 H10Z" fill="#D4DACE"/></g></svg></g><text x="186.5" y="1665" font-family="Arial, Apple SD Gothic Neo, sans-serif" font-size="15" fill="#657168" font-weight="400" text-anchor="middle">남해 금산</text><text x="186.5" y="1687" font-family="Arial, Apple SD Gothic Neo, sans-serif" font-size="13" fill="#657168" font-weight="400" text-anchor="middle">681m</text><g transform="translate(259.5 1564)"><svg class="stamp uncollected" xmlns="http://www.w3.org/2000/svg" width="76" height="76" viewBox="0 0 180 180" role="img" aria-label="산 스탬프 미모음"><defs><clipPath id="stamp-27"><circle cx="90" cy="90" r="73"/></clipPath></defs><circle cx="90" cy="90" r="85" fill="#EEEFE7" stroke="#D9DDD2" stroke-width="4"/><circle cx="90" cy="90" r="77" fill="none" stroke="#FAFAF5" stroke-width="1.5"/><g clip-path="url(#stamp-27)"><circle cx="90" cy="90" r="73" fill="#EEEFE7"/><path d="M19 118 L39 105 L56 57 L69 79 L92 50 L109 90 L124 71 L143 109 L162 124 L170 180 H10Z" fill="#D4DACE"/></g></svg></g><text x="297.5" y="1665" font-family="Arial, Apple SD Gothic Neo, sans-serif" font-size="15" fill="#657168" font-weight="400" text-anchor="middle">가야산</text><text x="297.5" y="1687" font-family="Arial, Apple SD Gothic Neo, sans-serif" font-size="13" fill="#657168" font-weight="400" text-anchor="middle">1,430m</text><text x="24" y="1732" font-family="Arial, Apple SD Gothic Neo, sans-serif" font-size="20" fill="#20372D" font-weight="600" text-anchor="start">제주</text><text x="351" y="1732" font-family="Arial, Apple SD Gothic Neo, sans-serif" font-size="15" fill="#657168" font-weight="400" text-anchor="end">1 / 2</text><g transform="translate(37.5 1756)"><svg class="stamp collected" xmlns="http://www.w3.org/2000/svg" width="76" height="76" viewBox="0 0 180 180" role="img" aria-label="산 스탬프 모음"><defs><clipPath id="stamp-28"><circle cx="90" cy="90" r="73"/></clipPath></defs><circle cx="90" cy="90" r="85" fill="#FCFBF7" stroke="#E8622C" stroke-width="4"/><circle cx="90" cy="90" r="77" fill="none" stroke="#E8622C" stroke-width="1.5"/><g clip-path="url(#stamp-28)"><circle cx="90" cy="90" r="73" fill="#DAE7E9"/><circle cx="116" cy="57" r="20" fill="#E8622C"/><path d="M18 128 L40 93 L57 85 L76 68 L93 61 L117 79 L135 94 L158 125 L170 180 H10Z" fill="#30485A"/><path d="M78 81L93 61L109 83L97 77L90 83Z" fill="#FCFBF7"/><path d="M10 148Q57 100 103 143T178 137V180H0Z" fill="#30485A" opacity=".6"/><circle cx="92.44147658104444" cy="124.91474175909384" r="1.1" fill="#FCFBF7" opacity=".3"/><circle cx="52.28053270736092" cy="54.20556206392492" r="0.65" fill="#FCFBF7" opacity=".3"/><circle cx="158.989490965791" cy="91.20421604417268" r="0.65" fill="#FCFBF7" opacity=".3"/><circle cx="57.79490400607292" cy="118.49266207327672" r="1.1" fill="#FCFBF7" opacity=".3"/><circle cx="96.27170779605908" cy="30.328686277903586" r="0.65" fill="#FCFBF7" opacity=".3"/><circle cx="135.80135457985352" cy="151.89697826752555" r="0.65" fill="#FCFBF7" opacity=".3"/><circle cx="39.93701364416911" cy="80.26874123579634" r="1.1" fill="#FCFBF7" opacity=".3"/><circle cx="147.97953117607838" cy="54.47009759931564" r="0.65" fill="#FCFBF7" opacity=".3"/><circle cx="78.42323105568614" cy="130.37299122940942" r="0.65" fill="#FCFBF7" opacity=".3"/><circle cx="63.67432902652141" cy="37.19887266548045" r="1.1" fill="#FCFBF7" opacity=".3"/><circle cx="160.95211241378732" cy="117.23596416544287" r="0.65" fill="#FCFBF7" opacity=".3"/><circle cx="43.4791216008988" cy="108.32506133621493" r="0.65" fill="#FCFBF7" opacity=".3"/><circle cx="119.370866834868" cy="29.78079889795572" r="1.1" fill="#FCFBF7" opacity=".3"/><circle cx="101.64462913286076" cy="129.31160912959592" r="0.65" fill="#FCFBF7" opacity=".3"/><circle cx="40.284296559277486" cy="60.12779165521685" r="0.65" fill="#FCFBF7" opacity=".3"/><circle cx="163.4943528465621" cy="75.04740491870955" r="1.1" fill="#FCFBF7" opacity=".3"/><circle cx="61.19852263766897" cy="129.64183272437253" r="0.65" fill="#FCFBF7" opacity=".3"/><circle cx="82.52858789131824" cy="24.42425752534521" r="0.65" fill="#FCFBF7" opacity=".3"/><circle cx="120.18838320891089" cy="116.24236115962027" r="1.1" fill="#FCFBF7" opacity=".3"/><circle cx="33.01953247639323" cy="91.4920860535485" r="0.65" fill="#FCFBF7" opacity=".3"/><circle cx="143.23114522505995" cy="38.595280586033965" r="0.65" fill="#FCFBF7" opacity=".3"/><circle cx="87.06967010232684" cy="137.91047032424962" r="1.1" fill="#FCFBF7" opacity=".3"/><circle cx="49.09417458176051" cy="39.48551250529694" r="0.65" fill="#FCFBF7" opacity=".3"/><circle cx="128.57161867111478" cy="95.76456703405469" r="0.65" fill="#FCFBF7" opacity=".3"/></g><path d="M79 156h22" stroke="#FCFBF7" stroke-width="2" opacity=".7"/></svg></g><text x="75.5" y="1857" font-family="Arial, Apple SD Gothic Neo, sans-serif" font-size="15" fill="#20372D" font-weight="600" text-anchor="middle">한라산</text><text x="75.5" y="1879" font-family="Arial, Apple SD Gothic Neo, sans-serif" font-size="13" fill="#657168" font-weight="400" text-anchor="middle">2026.01.24</text><rect x="0" y="1924" width="375" height="96" rx="0" fill="#FCFBF7" stroke="none"/><path d="M0 1924H375" stroke="#E2E5DC" /><g transform="translate(86 1934)" color="#657168"><svg width="24" height="24" viewBox="0 0 24 24" fill="none" stroke="currentColor" stroke-width="1.7" stroke-linecap="round" stroke-linejoin="round" aria-hidden="true"><path d="m3 11 9-8 9 8v9a1 1 0 0 1-1 1h-5v-7H9v7H4a1 1 0 0 1-1-1z"/></svg></g><g transform="translate(266 1934)" color="#1F6B4A"><svg width="24" height="24" viewBox="0 0 24 24" fill="none" stroke="currentColor" stroke-width="1.7" stroke-linecap="round" stroke-linejoin="round" aria-hidden="true"><rect x="5" y="5" width="16" height="16" rx="4"/><path d="M16 2H6a4 4 0 0 0-4 4v10"/><circle cx="13" cy="13" r="4"/></svg></g><text x="98" y="1978" font-family="Arial, Apple SD Gothic Neo, sans-serif" font-size="13" fill="#657168" font-weight="400" text-anchor="middle">홈</text><text x="278" y="1978" font-family="Arial, Apple SD Gothic Neo, sans-serif" font-size="13" fill="#1F6B4A" font-weight="700" text-anchor="middle">내 스탬프</text></svg>