<svg xmlns="http://www.w3.org/2000/svg" viewBox="0 0 180 180"><defs><filter id="ink-0000000047" x="-3%" y="-3%" width="106%" height="106%" color-interpolation-filters="sRGB"><feTurbulence type="fractalNoise" baseFrequency=".48" numOctaves="1" seed="13" result="grain"/><feDisplacementMap in="SourceGraphic" in2="grain" scale="1" xChannelSelector="R" yChannelSelector="G" result="edge"/><feComposite in="grain" in2="edge" operator="arithmetic" k1=".2" k2="0" k3=".8" k4="0"/></filter></defs><g class="stamp-art" data-status="landmark-concept-dem-pending"><g class="textured" filter="url(#ink-0000000047)"><g class="ridge-back" opacity=".6"><path fill="var(--ridge-back)" d="M8 137Q20 109 31 110L45 109 58 111 76 104 94 108 111 103Q143 109 173 138V180H8Z"/></g><g class="ridge"><path fill="var(--ridge)" d="M8 139 25 119 37 99Q45 82 52 77Q60 76 66 90L75 68Q83 50 91 47Q101 50 106 67L109 89 117 78Q126 59 134 64Q143 74 146 100L158 121 173 138V180H8Z"/></g><g class="motif" transform="translate(116 61) scale(0.72)"><use href="../../motifs/rock-dome.svg#motif-rock-dome" width="48" height="64"/></g><g class="snow collected-only"><path fill="var(--paper)" d="M84 59L91 47 98 60 91 56Z"/></g><g class="lg-only collected-only"><path fill="var(--paper)" opacity=".65" d="M40 110Q45 89 52 84Q57 84 59 92L62 107 54 119 45 119ZM78 82Q84 61 90 58Q95 62 98 75L94 99 84 111 75 108Z"/></g><g class="season-detail lg-only collected-only" data-season="winter"><path d="M10 155Q37 121 68 139Q132 155 175 137V180H10Z" fill="var(--paper)" opacity=".92"/><path d="M29 145Q47 138 63 145" fill="none" stroke="var(--ridge)" stroke-width="2.4" opacity=".22"/><g fill="var(--paper)"><circle cx="42" cy="65" r="2"/><circle cx="76" cy="39" r="1.8"/><circle cx="142" cy="77" r="2.1"/></g></g></g></g></svg>