<svg xmlns="http://www.w3.org/2000/svg" viewBox="0 0 180 180"><defs><filter id="ink-0000000080" x="-3%" y="-3%" width="106%" height="106%" color-interpolation-filters="sRGB"><feTurbulence type="fractalNoise" baseFrequency=".48" numOctaves="1" seed="13" result="grain"/><feDisplacementMap in="SourceGraphic" in2="grain" scale="1" xChannelSelector="R" yChannelSelector="G" result="edge"/><feComposite in="grain" in2="edge" operator="arithmetic" k1=".2" k2="0" k3=".8" k4="0"/></filter></defs><g class="stamp-art" data-status="landmark-concept-dem-pending"><g class="textured" filter="url(#ink-0000000080)"><g class="ridge-back" opacity=".6"><path fill="var(--ridge-back)" d="M8 144Q28 123 46 109Q86 84 109 95Q141 113 173 144V180H8Z"/></g><g class="ridge"><path fill="var(--ridge)" d="M8 145 27 129 46 116 63 103 82 72 94 58 104 65 109 89 120 98 132 124 151 134 173 148V180H8Z"/></g><g class="motif" transform="translate(86 62) scale(0.35)"><use href="../../motifs/rock-dome.svg#motif-rock-dome" width="48" height="64"/></g><g class="snow collected-only"><path fill="var(--paper)" d="M87 70L94 58 101 71 94 67Z"/></g><g class="lg-only collected-only"><path fill="var(--paper)" opacity=".65" d="M65 106Q82 88 91 71L96 78Q87 102 75 111Z"/></g><g class="season-detail lg-only collected-only" data-season="winter"><path d="M10 155Q35 125 66 143Q132 155 175 137V180H10Z" fill="var(--paper)" opacity=".92"/><path d="M27 149Q45 142 61 149" fill="none" stroke="var(--ridge)" stroke-width="2.4" opacity=".22"/><g fill="var(--paper)"><circle cx="42" cy="65" r="2"/><circle cx="76" cy="39" r="1.8"/><circle cx="142" cy="77" r="2.1"/></g></g></g></g></svg>